<mxfile host="app.diagrams.net" modified="2023-09-05T18:11:44.771Z" agent="Mozilla/5.0 (Windows NT 10.0; Win64; x64) AppleWebKit/537.36 (KHTML, like Gecko) Chrome/116.0.0.0 Safari/537.36 Edg/116.0.1938.62" etag="T_ufEj2toWKMvzaaYClG" version="21.7.2" type="github">
  <diagram name="PÃ¡gina-1" id="r3wywVz4yK5JfZALr3Rn">
    <mxGraphModel dx="1327" dy="443" grid="0" gridSize="10" guides="1" tooltips="1" connect="1" arrows="1" fold="1" page="0" pageScale="1" pageWidth="827" pageHeight="1169" math="0" shadow="0">
      <root>
        <mxCell id="0" />
        <mxCell id="1" parent="0" />
        <mxCell id="5pueT0lu1OVvBLg2bh8u-1" value="" style="ellipse;whiteSpace=wrap;html=1;aspect=fixed;fontSize=16;" vertex="1" parent="1">
          <mxGeometry x="-203" y="43" width="579" height="579" as="geometry" />
        </mxCell>
        <mxCell id="5pueT0lu1OVvBLg2bh8u-2" value="" style="rounded=1;whiteSpace=wrap;html=1;fontSize=16;" vertex="1" parent="1">
          <mxGeometry x="-162" y="296" width="103" height="47" as="geometry" />
        </mxCell>
        <mxCell id="5pueT0lu1OVvBLg2bh8u-3" value="" style="rounded=1;whiteSpace=wrap;html=1;fontSize=16;" vertex="1" parent="1">
          <mxGeometry x="232" y="289" width="103" height="47" as="geometry" />
        </mxCell>
        <mxCell id="5pueT0lu1OVvBLg2bh8u-4" value="" style="rounded=1;whiteSpace=wrap;html=1;fontSize=16;" vertex="1" parent="1">
          <mxGeometry x="35" y="293" width="103" height="47" as="geometry" />
        </mxCell>
      </root>
    </mxGraphModel>
  </diagram>
</mxfile>
